<svg id="Layer_1" data-name="Layer 1" xmlns="http://www.w3.org/2000/svg" viewBox="0 0 248.98 192.78"><defs><style>.cls-1{fill:#ba3d0d;}.cls-2{fill:#bb4011;}.cls-3{fill:#bc4314;}.cls-4{fill:#bb4111;}.cls-5{fill:#bc4416;}.cls-6{fill:#b83b0a;}.cls-7{fill:#be481b;}</style></defs><path class="cls-1" d="M324.47,357.91c-.48-5.07-.93-9.87-1.46-15.52-3.44,1.55-6.41,2.92-9.41,4.22-3.17,1.37-6.72,4.18-9.45,3.55-2.5-.57-4.17-4.88-6.15-7.59s-3.76-5.28-6.1-8.57c-2.81,3.93-5.42,7.51-8,11.14-4,5.67-3.95,5.69-10.41,2.82L261,342.37l-1.7,15.55h-5.23c-12.25,0-24.5-.12-36.74.08-3.33.06-5.42-.64-6.37-4.05a50.73,50.73,0,0,0-2.8-6.36c7.37-.69,14.16-1.33,20.94-1.95,2.86-.27,5.72-.64,8.59-.74,2.23-.08,2.93-1.09,3.1-3.23.62-8.22,1.41-16.42,2.14-24.63.11-1.22.26-2.44.47-4.35,1.84.71,3.3,1.2,4.7,1.82,7.4,3.32,14.82,6.57,22.13,10.06,2.35,1.12,3.47.59,4.85-1.43,4.56-6.71,9.31-13.29,14-19.9.84-1.18,1.85-2.23,3-3.63,5.55,7.92,10.92,15.42,16.09,23.06,1.62,2.39,3,3,5.76,1.61,7.26-3.59,14.7-6.83,22.08-10.19,1.2-.55,2.44-1,4.09-1.73.41,3.56.85,6.72,1.14,9.9.57,6.34,1.22,12.68,1.51,19,.13,2.64,1.19,3.42,3.57,3.61,8.09.64,16.17,1.4,24.26,2.15,1.45.13,2.88.41,4.85.7-1.51,3.27-2.72,6.09-4.13,8.81a2.69,2.69,0,0,1-2,1.28C354.55,357.92,339.7,357.91,324.47,357.91Z" transform="translate(-167.54 -299.61)"/><path class="cls-1" d="M291.89,492.39,273.22,466l-29.4,13.48c-.31-1.67-.68-3.05-.8-4.44-.71-8-1.46-15.93-2-23.9-.2-3-1.47-4-4.39-4.17-8.84-.6-17.66-1.49-26.49-2.3a8.79,8.79,0,0,1-1.71-.63c1.39-3.07,2.63-6,4.08-8.86a2.78,2.78,0,0,1,2.1-1.11c14.74-.06,29.47,0,44.59,0,.52,5.06,1,10,1.6,15.58,2.63-1.17,4.95-2.17,7.24-3.22,3.06-1.4,6.16-2.75,9.13-4.32,1.94-1,3.06-.71,4.29,1.13,3.23,4.86,6.66,9.59,10.38,14.89,4.17-5.88,8-11.3,12.14-17.1l18.88,8.72c.58-5.45,1.1-10.42,1.66-15.69h20.1c7.63,0,15.25.1,22.87-.07,2.46-.05,3.94.54,4.78,3s2,4.71,3.28,7.51c-9.85.86-19.12,1.85-28.41,2.39-3.23.19-4.16,1.18-4.35,4.38-.57,9.3-1.57,18.56-2.45,28.41L310.67,466Z" transform="translate(-167.54 -299.61)"/><path class="cls-2" d="M264.07,420.68h-7.89V370.35a53.63,53.63,0,0,1,7.41.11,4.64,4.64,0,0,1,2.8,2.32c4.69,8.94,9.23,18,13.84,26.94.61,1.2,1.31,2.36,2.17,3.89,5-9.88,10-19.3,14.55-28.95,1.64-3.51,3.64-5,7.35-4.35a26.41,26.41,0,0,0,3.9,0v50.33h-7.38V384.79l-.65-.18q-3.68,7-7.35,14.08c-2,3.88-4.07,7.73-6,11.65-1,2-1.87,3.39-4.6,3.43s-3.62-1.4-4.62-3.36c-4.25-8.31-8.58-16.58-13.55-24.8Z" transform="translate(-167.54 -299.61)"/><path class="cls-3" d="M374.21,371c8.29,0,16.5-.92,24.41.22,10.76,1.55,16.87,9.3,17.71,20.16a46.45,46.45,0,0,1-.05,9c-1.4,11.83-9.42,19.55-21.31,20.2-6.83.37-13.7.07-20.76.07Zm7.8,43.34c8.92-.6,18.65,2.11,23.94-7.43,4.3-7.78,4.23-16.54-.58-23.91-5.5-8.43-14.88-6.18-23.36-6.43Z" transform="translate(-167.54 -299.61)"/><path class="cls-4" d="M248.76,420.5c-7.76.95-7.76.95-10.11-5.9-2.05-6-2.05-6-8.34-6h-7.87c-6.65,0-6.65,0-8.85,6.22-2.36,6.65-2.36,6.65-10.12,5.69l10.26-28.05c2.44-6.65,4.79-13.34,7.38-19.93a3.75,3.75,0,0,1,2.76-2.06c2.4.12,6.42.19,6.9,1.41C237,387.86,242.76,404,248.76,420.5Zm-22.71-41.2c-2.86,8.21-5.35,15.34-7.92,22.69h16Z" transform="translate(-167.54 -299.61)"/><path class="cls-5" d="M323,406.68c1.3,6.27,2.91,8,7.42,8.11,4.78.08,7.15-1.68,7.27-6.48.29-11.1.21-22.21.27-33.31,0-1.47,0-2.94,0-4.51h7.84v16.88c0,6.49.09,13,0,19.46-.12,5.65-1.68,10.79-7.39,13.2-6.08,2.58-12.19,2.5-17.69-1.63-3.78-2.83-5.15-6.87-5-11.72Z" transform="translate(-167.54 -299.61)"/><path class="cls-6" d="M204.75,370.59v5.76H189.94v44.24h-7.49v-44H167.54v-6Z" transform="translate(-167.54 -299.61)"/><path class="cls-7" d="M363.64,420.73h-7.4V370.59h7.4Z" transform="translate(-167.54 -299.61)"/></svg>